ffmpeg started on 2025-06-28 at 17:47:14
Report written to "D:\Convert\FFMetrics\reports\ssim_report-6.txt"
Log level: 32
Command line:
ffmpeg -hide_banner -nostdin -i "G:\\\xc0\xed\xe8\xec\xe5\\\xce\xed\xe3\xee\xe8\xed\xe3\xe8\\!_37_\xc7\xe8\xec\xe0_2025\\JamClub\\100 \xe4\xe5\xe2\xf3\xf8\xe5\xea, \xea\xee\xf2\xee\xf0\xfb\xe5 \xee\xf7\xe5\xed\xfc-\xee\xf7\xe5\xed\xfc-\xee\xf7\xe5\xed\xfc-\xee\xf7\xe5\xed\xfc-\xee\xf7\xe5\xed\xfc \xf1\xe8\xeb\xfc\xed\xee \xf2\xe5\xe1\xff \xeb\xfe\xe1\xff\xf2\\\xd2\xc2-2\\DC_The_100_Girlfriends_Who_Really_Really_Really_Really_REALLY_Love_2_01_HEVC.mkv" -i "G:\\\xc0\xed\xe8\xec\xe5\\\xce\xed\xe3\xee\xe8\xed\xe3\xe8\\!_37_\xc7\xe8\xec\xe0_2025\\JamClub\\100 \xe4\xe5\xe2\xf3\xf8\xe5\xea, \xea\xee\xf2\xee\xf0\xfb\xe5 \xee\xf7\xe5\xed\xfc-\xee\xf7\xe5\xed\xfc-\xee\xf7\xe5\xed\xfc-\xee\xf7\xe5\xed\xfc-\xee\xf7\xe5\xed\xfc \xf1\xe8\xeb\xfc\xed\xee \xf2\xe5\xe1\xff \xeb\xfe\xe1\xff\xf2\\\xd2\xc2-2\\DC_The_100_Girlfriends_Who_Really_Really_Really_Really_REALLY_Love_2_01.mp4" -lavfi "[0:v]settb=AVTB,setpts=PTS-STARTPTS,format=pix_fmts=yuv420p10,fps=24000/1001,scale=1920:1080:flags=bicubic[main];[1:v]settb=AVTB,setpts=PTS-STARTPTS,format=pix_fmts=yuv420p,fps=24000/1001,scale=1920:1080:flags=bicubic[ref];[main][ref]ssim=eof_action=endall:stats_file='D\\:/Convert/FFMetrics/logs/ssim_logfile-6.txt'" -f null -
Input #0, matroska,webm, from 'G:\Аниме\Онгоинги\!_37_Зима_2025\JamClub\100 девушек, которые очень-очень-очень-очень-очень сильно тебя любят\ТВ-2\DC_The_100_Girlfriends_Who_Really_Really_Really_Really_REALLY_Love_2_01_HEVC.mkv':
  Metadata:
    COMPATIBLE_BRANDS: isomiso2avc1mp41
    MAJOR_BRAND     : isom
    MINOR_VERSION   : 512
    ENCODER         : Lavf61.7.100
  Duration: 00:23:56.93, start: -0.021000, bitrate: 1514 kb/s
  Stream #0:0: Video: hevc (Main 10), yuv420p10le(tv, bt709, progressive), 1920x1080 [SAR 1:1 DAR 16:9], 23.98 fps, 23.98 tbr, 1k tbn (default)
      Metadata:
        HANDLER_NAME    : VideoHandler
        VENDOR_ID       : [0][0][0][0]
        ENCODER         : Lavc61.19.100 libx265
        BPS             : 1317672
        DURATION        : 00:23:56.562708410
        NUMBER_OF_FRAMES: 34443
        NUMBER_OF_BYTES : 236614845
        _STATISTICS_WRITING_APP: mkvpropedit v66.0.0 ('Josie') 64-bit
        _STATISTICS_WRITING_DATE_UTC: 2025-06-28 12:01:22
        _STATISTICS_TAGS: BPS DURATION NUMBER_OF_FRAMES NUMBER_OF_BYTES
  Stream #0:1: Audio: aac (LC), 48000 Hz, stereo, fltp (default)
      Metadata:
        HANDLER_NAME    : SoundHandler
        VENDOR_ID       : [0][0][0][0]
        ENCODER         : Lavc61.19.100 aac
        BPS             : 193267
        DURATION        : 00:23:56.928000000
        NUMBER_OF_FRAMES: 67357
        NUMBER_OF_BYTES : 34713886
        _STATISTICS_WRITING_APP: mkvpropedit v66.0.0 ('Josie') 64-bit
        _STATISTICS_WRITING_DATE_UTC: 2025-06-28 12:01:22
        _STATISTICS_TAGS: BPS DURATION NUMBER_OF_FRAMES NUMBER_OF_BYTES
Input #1, mov,mp4,m4a,3gp,3g2,mj2, from 'G:\Аниме\Онгоинги\!_37_Зима_2025\JamClub\100 девушек, которые очень-очень-очень-очень-очень сильно тебя любят\ТВ-2\DC_The_100_Girlfriends_Who_Really_Really_Really_Really_REALLY_Love_2_01.mp4':
  Metadata:
    major_brand     : isom
    minor_version   : 512
    compatible_brands: isomiso2avc1mp41
    encoder         : Lavf61.1.100
  Duration: 00:23:56.90, start: 0.000000, bitrate: 3736 kb/s
  Stream #1:0[0x1](und): Video: h264 (High) (avc1 / 0x31637661), yuv420p(tv, bt709, progressive), 1920x1080 [SAR 1:1 DAR 16:9], 3589 kb/s, 23.98 fps, 23.98 tbr, 18965 tbn (default)
      Metadata:
        handler_name    : VideoHandler
        vendor_id       : [0][0][0][0]
        encoder         : Lavc61.3.100 h264_qsv
  Stream #1:1[0x2](und): Audio: aac (HE-AACv2) (mp4a / 0x6134706D), 48000 Hz, stereo, fltp, 144 kb/s (default)
      Metadata:
        handler_name    : SoundHandler
        vendor_id       : [0][0][0][0]
Stream mapping:
  Stream #0:0 (hevc) -> settb:default
  Stream #1:0 (h264) -> settb:default
  ssim:default -> Stream #0:0 (wrapped_avframe)
  Stream #0:1 -> #0:1 (aac (native) -> pcm_s16le (native))
Output #0, null, to 'pipe:':
  Metadata:
    COMPATIBLE_BRANDS: isomiso2avc1mp41
    MAJOR_BRAND     : isom
    MINOR_VERSION   : 512
    encoder         : Lavf61.7.100
  Stream #0:0: Video: wrapped_avframe, yuv420p10le(tv, bt709, progressive), 1920x1080 [SAR 1:1 DAR 16:9], q=2-31, 200 kb/s, 23.98 fps, 23.98 tbn
      Metadata:
        encoder         : Lavc61.19.100 wrapped_avframe
  Stream #0:1: Audio: pcm_s16le, 48000 Hz, stereo, s16, 1536 kb/s (default)
      Metadata:
        HANDLER_NAME    : SoundHandler
        VENDOR_ID       : [0][0][0][0]
        _STATISTICS_TAGS: BPS DURATION NUMBER_OF_FRAMES NUMBER_OF_BYTES
        BPS             : 193267
        DURATION        : 00:23:56.928000000
        NUMBER_OF_FRAMES: 67357
        NUMBER_OF_BYTES : 34713886
        _STATISTICS_WRITING_APP: mkvpropedit v66.0.0 ('Josie') 64-bit
        _STATISTICS_WRITING_DATE_UTC: 2025-06-28 12:01:22
        encoder         : Lavc61.19.100 pcm_s16le
frame=  174 fps=0.0 q=-0.0 size=N/A time=00:00:07.25 bitrate=N/A speed=14.3x    frame=  348 fps=337 q=-0.0 size=N/A time=00:00:14.51 bitrate=N/A speed=14.1x    frame=  607 fps=394 q=-0.0 size=N/A time=00:00:25.31 bitrate=N/A speed=16.4x    frame=  832 fps=402 q=-0.0 size=N/A time=00:00:34.70 bitrate=N/A speed=16.8x    frame= 1030 fps=397 q=-0.0 size=N/A time=00:00:42.95 bitrate=N/A speed=16.5x    frame= 1277 fps=411 q=-0.0 size=N/A time=00:00:53.26 bitrate=N/A speed=17.2x    frame= 1491 fps=411 q=-0.0 size=N/A time=00:01:02.18 bitrate=N/A speed=17.1x    frame= 1683 fps=406 q=-0.0 size=N/A time=00:01:10.19 bitrate=N/A speed=16.9x    frame= 1894 fps=407 q=-0.0 size=N/A time=00:01:18.99 bitrate=N/A speed=  17x    frame= 2104 fps=407 q=-0.0 size=N/A time=00:01:27.75 bitrate=N/A speed=  17x    frame= 2315 fps=407 q=-0.0 size=N/A time=00:01:36.55 bitrate=N/A speed=  17x    frame= 2535 fps=409 q=-0.0 size=N/A time=00:01:45.73 bitrate=N/A speed=17.1x    frame= 2764 fps=411 q=-0.0 size=N/A time=00:01:55.28 bitrate=N/A speed=17.1x    frame= 2959 fps=408 q=-0.0 size=N/A time=00:02:03.41 bitrate=N/A speed=  17x    frame= 3192 fps=411 q=-0.0 size=N/A time=00:02:13.13 bitrate=N/A speed=17.1x    frame= 3346 fps=404 q=-0.0 size=N/A time=00:02:19.55 bitrate=N/A speed=16.9x    frame= 3531 fps=401 q=-0.0 size=N/A time=00:02:27.27 bitrate=N/A speed=16.7x    frame= 3694 fps=397 q=-0.0 size=N/A time=00:02:34.07 bitrate=N/A speed=16.5x    frame= 3879 fps=395 q=-0.0 size=N/A time=00:02:41.78 bitrate=N/A speed=16.5x    frame= 4139 fps=400 q=-0.0 size=N/A time=00:02:52.63 bitrate=N/A speed=16.7x    frame= 4410 fps=406 q=-0.0 size=N/A time=00:03:03.93 bitrate=N/A speed=16.9x    frame= 4622 fps=407 q=-0.0 size=N/A time=00:03:12.77 bitrate=N/A speed=  17x    frame= 4851 fps=408 q=-0.0 size=N/A time=00:03:22.32 bitrate=N/A speed=  17x    frame= 5116 fps=412 q=-0.0 size=N/A time=00:03:33.37 bitrate=N/A speed=17.2x    frame= 5354 fps=415 q=-0.0 size=N/A time=00:03:43.30 bitrate=N/A speed=17.3x    frame= 5601 fps=417 q=-0.0 size=N/A time=00:03:53.60 bitrate=N/A speed=17.4x    frame= 5832 fps=418 q=-0.0 size=N/A time=00:04:03.24 bitrate=N/A speed=17.4x    frame= 6074 fps=420 q=-0.0 size=N/A time=00:04:13.33 bitrate=N/A speed=17.5x    frame= 6317 fps=421 q=-0.0 size=N/A time=00:04:23.47 bitrate=N/A speed=17.6x    frame= 6517 fps=420 q=-0.0 size=N/A time=00:04:31.81 bitrate=N/A speed=17.5x    frame= 6796 fps=424 q=-0.0 size=N/A time=00:04:43.44 bitrate=N/A speed=17.7x    frame= 7075 fps=428 q=-0.0 size=N/A time=00:04:55.08 bitrate=N/A speed=17.9x    frame= 7315 fps=429 q=-0.0 size=N/A time=00:05:05.09 bitrate=N/A speed=17.9x    frame= 7536 fps=429 q=-0.0 size=N/A time=00:05:14.31 bitrate=N/A speed=17.9x    frame= 7782 fps=430 q=-0.0 size=N/A time=00:05:24.57 bitrate=N/A speed=17.9x    frame= 8023 fps=431 q=-0.0 size=N/A time=00:05:34.62 bitrate=N/A speed=  18x    frame= 8249 fps=432 q=-0.0 size=N/A time=00:05:44.05 bitrate=N/A speed=  18x    frame= 8488 fps=432 q=-0.0 size=N/A time=00:05:54.02 bitrate=N/A speed=  18x    frame= 8709 fps=432 q=-0.0 size=N/A time=00:06:03.23 bitrate=N/A speed=  18x    frame= 8946 fps=433 q=-0.0 size=N/A time=00:06:13.12 bitrate=N/A speed=18.1x    frame= 9174 fps=433 q=-0.0 size=N/A time=00:06:22.63 bitrate=N/A speed=18.1x    frame= 9395 fps=433 q=-0.0 size=N/A time=00:06:31.84 bitrate=N/A speed=18.1x    frame= 9652 fps=435 q=-0.0 size=N/A time=00:06:42.56 bitrate=N/A speed=18.1x    frame= 9866 fps=434 q=-0.0 size=N/A time=00:06:51.49 bitrate=N/A speed=18.1x    frame=10107 fps=435 q=-0.0 size=N/A time=00:07:01.54 bitrate=N/A speed=18.1x    frame=10361 fps=436 q=-0.0 size=N/A time=00:07:12.14 bitrate=N/A speed=18.2x    frame=10582 fps=436 q=-0.0 size=N/A time=00:07:21.35 bitrate=N/A speed=18.2x    frame=10816 fps=437 q=-0.0 size=N/A time=00:07:31.11 bitrate=N/A speed=18.2x    frame=11052 fps=437 q=-0.0 size=N/A time=00:07:40.96 bitrate=N/A speed=18.2x    frame=11320 fps=438 q=-0.0 size=N/A time=00:07:52.13 bitrate=N/A speed=18.3x    frame=11547 fps=438 q=-0.0 size=N/A time=00:08:01.60 bitrate=N/A speed=18.3x    frame=11758 fps=438 q=-0.0 size=N/A time=00:08:10.40 bitrate=N/A speed=18.3x    frame=12013 fps=439 q=-0.0 size=N/A time=00:08:21.04 bitrate=N/A speed=18.3x    frame=12255 fps=439 q=-0.0 size=N/A time=00:08:31.13 bitrate=N/A speed=18.3x    frame=12496 fps=440 q=-0.0 size=N/A time=00:08:41.18 bitrate=N/A speed=18.4x    frame=12732 fps=440 q=-0.0 size=N/A time=00:08:51.03 bitrate=N/A speed=18.4x    frame=12968 fps=441 q=-0.0 size=N/A time=00:09:00.87 bitrate=N/A speed=18.4x    frame=13212 fps=441 q=-0.0 size=N/A time=00:09:11.05 bitrate=N/A speed=18.4x    frame=13442 fps=441 q=-0.0 size=N/A time=00:09:20.64 bitrate=N/A speed=18.4x    frame=13666 fps=441 q=-0.0 size=N/A time=00:09:29.98 bitrate=N/A speed=18.4x    frame=13906 fps=442 q=-0.0 size=N/A time=00:09:39.99 bitrate=N/A speed=18.4x    frame=14170 fps=443 q=-0.0 size=N/A time=00:09:51.00 bitrate=N/A speed=18.5x    frame=14402 fps=443 q=-0.0 size=N/A time=00:10:00.68 bitrate=N/A speed=18.5x    frame=14619 fps=442 q=-0.0 size=N/A time=00:10:09.73 bitrate=N/A speed=18.5x    frame=14853 fps=443 q=-0.0 size=N/A time=00:10:19.49 bitrate=N/A speed=18.5x    frame=15079 fps=443 q=-0.0 size=N/A time=00:10:28.91 bitrate=N/A speed=18.5x    frame=15312 fps=443 q=-0.0 size=N/A time=00:10:38.63 bitrate=N/A speed=18.5x    frame=15525 fps=442 q=-0.0 size=N/A time=00:10:47.52 bitrate=N/A speed=18.4x    frame=15780 fps=443 q=-0.0 size=N/A time=00:10:58.15 bitrate=N/A speed=18.5x    frame=16045 fps=444 q=-0.0 size=N/A time=00:11:09.21 bitrate=N/A speed=18.5x    frame=16250 fps=443 q=-0.0 size=N/A time=00:11:17.76 bitrate=N/A speed=18.5x    frame=16520 fps=444 q=-0.0 size=N/A time=00:11:29.02 bitrate=N/A speed=18.5x    frame=16767 fps=445 q=-0.0 size=N/A time=00:11:39.32 bitrate=N/A speed=18.6x    frame=17011 fps=445 q=-0.0 size=N/A time=00:11:49.50 bitrate=N/A speed=18.6x    frame=17229 fps=445 q=-0.0 size=N/A time=00:11:58.59 bitrate=N/A speed=18.6x    frame=17412 fps=444 q=-0.0 size=N/A time=00:12:06.22 bitrate=N/A speed=18.5x    frame=17599 fps=443 q=-0.0 size=N/A time=00:12:14.02 bitrate=N/A speed=18.5x    frame=17830 fps=443 q=-0.0 size=N/A time=00:12:23.65 bitrate=N/A speed=18.5x    frame=18084 fps=443 q=-0.0 size=N/A time=00:12:34.25 bitrate=N/A speed=18.5x    frame=18331 fps=444 q=-0.0 size=N/A time=00:12:44.55 bitrate=N/A speed=18.5x    frame=18558 fps=444 q=-0.0 size=N/A time=00:12:54.02 bitrate=N/A speed=18.5x    frame=18818 fps=444 q=-0.0 size=N/A time=00:13:04.86 bitrate=N/A speed=18.5x    frame=19076 fps=445 q=-0.0 size=N/A time=00:13:15.62 bitrate=N/A speed=18.6x    frame=19301 fps=445 q=-0.0 size=N/A time=00:13:25.01 bitrate=N/A speed=18.6x    frame=19544 fps=445 q=-0.0 size=N/A time=00:13:35.14 bitrate=N/A speed=18.6x    frame=19819 fps=446 q=-0.0 size=N/A time=00:13:46.61 bitrate=N/A speed=18.6x    frame=20095 fps=447 q=-0.0 size=N/A time=00:13:58.12 bitrate=N/A speed=18.7x    frame=20347 fps=448 q=-0.0 size=N/A time=00:14:08.63 bitrate=N/A speed=18.7x    frame=20614 fps=448 q=-0.0 size=N/A time=00:14:19.77 bitrate=N/A speed=18.7x    frame=20879 fps=449 q=-0.0 size=N/A time=00:14:30.82 bitrate=N/A speed=18.7x    frame=21135 fps=450 q=-0.0 size=N/A time=00:14:41.50 bitrate=N/A speed=18.8x    frame=21420 fps=451 q=-0.0 size=N/A time=00:14:53.39 bitrate=N/A speed=18.8x    frame=21640 fps=451 q=-0.0 size=N/A time=00:15:02.56 bitrate=N/A speed=18.8x    frame=21887 fps=451 q=-0.0 size=N/A time=00:15:12.87 bitrate=N/A speed=18.8x    frame=22134 fps=451 q=-0.0 size=N/A time=00:15:23.17 bitrate=N/A speed=18.8x    frame=22319 fps=450 q=-0.0 size=N/A time=00:15:30.88 bitrate=N/A speed=18.8x    frame=22549 fps=450 q=-0.0 size=N/A time=00:15:40.48 bitrate=N/A speed=18.8x    frame=22798 fps=450 q=-0.0 size=N/A time=00:15:50.86 bitrate=N/A speed=18.8x    frame=23055 fps=451 q=-0.0 size=N/A time=00:16:01.58 bitrate=N/A speed=18.8x    frame=23328 fps=452 q=-0.0 size=N/A time=00:16:12.97 bitrate=N/A speed=18.8x    frame=23564 fps=452 q=-0.0 size=N/A time=00:16:22.81 bitrate=N/A speed=18.8x    frame=23813 fps=452 q=-0.0 size=N/A time=00:16:33.20 bitrate=N/A speed=18.9x    frame=24069 fps=452 q=-0.0 size=N/A time=00:16:43.87 bitrate=N/A speed=18.9x    frame=24319 fps=453 q=-0.0 size=N/A time=00:16:54.30 bitrate=N/A speed=18.9x    frame=24558 fps=453 q=-0.0 size=N/A time=00:17:04.27 bitrate=N/A speed=18.9x    frame=24776 fps=453 q=-0.0 size=N/A time=00:17:13.36 bitrate=N/A speed=18.9x    frame=25019 fps=453 q=-0.0 size=N/A time=00:17:23.50 bitrate=N/A speed=18.9x    frame=25236 fps=452 q=-0.0 size=N/A time=00:17:32.55 bitrate=N/A speed=18.9x    frame=25493 fps=453 q=-0.0 size=N/A time=00:17:43.27 bitrate=N/A speed=18.9x    frame=25745 fps=453 q=-0.0 size=N/A time=00:17:53.78 bitrate=N/A speed=18.9x    frame=26000 fps=453 q=-0.0 size=N/A time=00:18:04.41 bitrate=N/A speed=18.9x    frame=26236 fps=454 q=-0.0 size=N/A time=00:18:14.25 bitrate=N/A speed=18.9x    frame=26480 fps=454 q=-0.0 size=N/A time=00:18:24.43 bitrate=N/A speed=18.9x    frame=26670 fps=453 q=-0.0 size=N/A time=00:18:32.36 bitrate=N/A speed=18.9x    frame=26941 fps=454 q=-0.0 size=N/A time=00:18:43.66 bitrate=N/A speed=18.9x    frame=27214 fps=454 q=-0.0 size=N/A time=00:18:55.05 bitrate=N/A speed=18.9x    frame=27490 fps=455 q=-0.0 size=N/A time=00:19:06.56 bitrate=N/A speed=  19x    frame=27766 fps=456 q=-0.0 size=N/A time=00:19:18.07 bitrate=N/A speed=  19x    frame=28051 fps=456 q=-0.0 size=N/A time=00:19:29.96 bitrate=N/A speed=  19x    frame=28291 fps=456 q=-0.0 size=N/A time=00:19:39.97 bitrate=N/A speed=  19x    frame=28571 fps=457 q=-0.0 size=N/A time=00:19:51.64 bitrate=N/A speed=19.1x    frame=28834 fps=458 q=-0.0 size=N/A time=00:20:02.61 bitrate=N/A speed=19.1x    frame=29102 fps=458 q=-0.0 size=N/A time=00:20:13.79 bitrate=N/A speed=19.1x    frame=29366 fps=459 q=-0.0 size=N/A time=00:20:24.80 bitrate=N/A speed=19.1x    frame=29599 fps=459 q=-0.0 size=N/A time=00:20:34.52 bitrate=N/A speed=19.1x    frame=29859 fps=459 q=-0.0 size=N/A time=00:20:45.36 bitrate=N/A speed=19.1x    frame=30094 fps=459 q=-0.0 size=N/A time=00:20:55.17 bitrate=N/A speed=19.1x    frame=30311 fps=459 q=-0.0 size=N/A time=00:21:04.22 bitrate=N/A speed=19.1x    frame=30497 fps=458 q=-0.0 size=N/A time=00:21:11.97 bitrate=N/A speed=19.1x    frame=30698 fps=457 q=-0.0 size=N/A time=00:21:20.36 bitrate=N/A speed=19.1x    frame=30912 fps=457 q=-0.0 size=N/A time=00:21:29.28 bitrate=N/A speed=19.1x    frame=31144 fps=457 q=-0.0 size=N/A time=00:21:38.96 bitrate=N/A speed=19.1x    frame=31397 fps=457 q=-0.0 size=N/A time=00:21:49.51 bitrate=N/A speed=19.1x    frame=31641 fps=457 q=-0.0 size=N/A time=00:21:59.69 bitrate=N/A speed=19.1x    frame=31901 fps=458 q=-0.0 size=N/A time=00:22:10.53 bitrate=N/A speed=19.1x    frame=32165 fps=458 q=-0.0 size=N/A time=00:22:21.54 bitrate=N/A speed=19.1x    frame=32380 fps=458 q=-0.0 size=N/A time=00:22:30.51 bitrate=N/A speed=19.1x    frame=32559 fps=457 q=-0.0 size=N/A time=00:22:37.98 bitrate=N/A speed=19.1x    frame=32784 fps=457 q=-0.0 size=N/A time=00:22:47.36 bitrate=N/A speed=19.1x    frame=33030 fps=457 q=-0.0 size=N/A time=00:22:57.62 bitrate=N/A speed=19.1x    frame=33219 fps=456 q=-0.0 size=N/A time=00:23:05.50 bitrate=N/A speed=  19x    frame=33432 fps=456 q=-0.0 size=N/A time=00:23:14.39 bitrate=N/A speed=  19x    frame=33580 fps=455 q=-0.0 size=N/A time=00:23:20.56 bitrate=N/A speed=  19x    frame=33735 fps=454 q=-0.0 size=N/A time=00:23:27.03 bitrate=N/A speed=18.9x    frame=33853 fps=452 q=-0.0 size=N/A time=00:23:31.95 bitrate=N/A speed=18.9x    frame=33965 fps=451 q=-0.0 size=N/A time=00:23:36.62 bitrate=N/A speed=18.8x    frame=34095 fps=449 q=-0.0 size=N/A time=00:23:42.04 bitrate=N/A speed=18.7x    frame=34258 fps=448 q=-0.0 size=N/A time=00:23:48.84 bitrate=N/A speed=18.7x    [Parsed_ssim_10 @ 000001c776de5f80] SSIM Y:0.995456 (23.425659) U:0.993844 (22.107231) V:0.993540 (21.897998) All:0.994868 (22.897270)
[out#0/null @ 000001c774b75e40] video:14800KiB audio:269428KiB subtitle:0KiB other streams:0KiB global headers:0KiB muxing overhead: unknown
frame=34443 fps=448 q=-0.0 Lsize=N/A time=00:23:56.56 bitrate=N/A speed=18.7x    
